#!OML:ASF X:\für Bonn\!DataBase\2005_08_12_Daniel\c3d\Daniel.ASF
:FULLY-SPECIFIED
:DEGREES
3504
root -4.0554 17.2181 -1.36825 334.662 -82.1974 -344.453
lowerback 15.0554 -2.09168 -8.41988
upperback 3.8036 -4.33323 -1.80843
thorax -3.89675 -2.17862 3.60143
lowerneck 1.34429 2.65526 -5.33131
upperneck -1.00732 3.38542 -1.3639
head -0.595966 1.70826 0.426134
rclavicle -2.21148e-014 1.27222e-014
rhumerus -43.3757 7.98167 -78.0033
rradius 33.936
rwrist 25.9642
rhand 0.133243 18.8542
rfingers 7.12502
rthumb 25.718 -9.4282
lclavicle -2.21148e-014 1.27222e-014
lhumerus -30.022 -18.1719 80.9752
lradius 55.8218
lwrist -23.4687
lhand 8.54492 5.08277
lfingers 7.12502
lthumb 33.745 31.9228
rfemur -3.3867 -6.76551 2.5014
rtibia 35.714
rfoot -8.65522 -2.08377
rtoes -12.3326
lfemur -1.36548 -29.4455 -26.4259
ltibia 33.4579
lfoot -28.2393 7.77209
ltoes 4.14396
3505
root -4.06012 17.2186 -1.3662 333.576 -82.004 -343.327
lowerback 14.9582 -2.16141 -8.59451
upperback 3.76281 -4.4455 -1.86315
thorax -3.86482 -2.23271 3.65381
lowerneck 1.4044 2.61242 -5.32436
upperneck -1.04993 3.32395 -1.34158
head -0.618298 1.67878 0.431608
rclavicle -1.76918e-014 -1.98785e-014
rhumerus -42.5594 5.48713 -77.0238
rradius 33.198
rwrist 25.67
rhand -1.92126 19.0459
rfingers 7.12502
rthumb 23.7489 -9.50663
lclavicle -1.76918e-014 -1.98785e-014
lhumerus -27.9511 -15.4249 80.3349
lradius 53.0263
lwrist -22.1816
lhand 6.11443 3.42868
lfingers 7.12502
lthumb 31.4324 30.7468
rfemur -3.15363 -6.12376 2.31198
rtibia 35.4708
rfoot -9.04304 -2.50979
rtoes -12.7505
lfemur -1.37562 -29.2594 -26.5786
ltibia 33.3423
lfoot -28.0586 7.53276
ltoes 4.03892
3506
root -4.06749 17.219 -1.36604 332.637 -81.7535 -342.333
lowerback 14.8396 -2.2471 -8.77026
upperback 3.71309 -4.57679 -1.92619
thorax -3.82858 -2.29589 3.69952
lowerneck 1.50297 2.56923 -5.34153
upperneck -1.10266 3.25938 -1.28746
head -0.651279 1.6481 0.450471
rclavicle 2.45002e-014 7.95139e-016
rhumerus -41.9047 3.126 -76.2171
rradius 32.5493
rwrist 24.9372
rhand -4.03029 19.3408
rfingers 7.12502
rthumb 21.7249 -9.46009
lclavicle 2.45002e-014 7.95139e-016
lhumerus -25.9255 -12.4472 79.7868
lradius 50.131
lwrist -20.7738
lhand 3.95241 1.79548
lfingers 7.12502
lthumb 29.3703 29.4949
rfemur -2.87383 -5.49619 2.13649
rtibia 35.1952
rfoot -9.52225 -2.99451
rtoes -13.2769
lfemur -1.40598 -29.0779 -26.7181
ltibia 33.2123
lfoot -27.8434 7.25395
ltoes 4.05573
3507
root -4.07672 17.2201 -1.36754 331.776 -81.4512 -341.398
lowerback 14.6871 -2.34786 -8.96861
upperback 3.66512 -4.72651 -1.98492
thorax -3.76689 -2.36925 3.76208
lowerneck 1.55786 2.5329 -5.37964
upperneck -1.09649 3.20764 -1.23659
head -0.659299 1.62222 0.472564
rclavicle 2.38542e-014 -4.05521e-014
rhumerus -41.335 0.983777 -75.6031
rradius 31.9959
rwrist 23.6029
rhand -6.11032 19.6096
rfingers 7.12502
rthumb 19.7263 -9.40949
lclavicle 2.38542e-014 -4.05521e-014
lhumerus -23.9484 -9.23742 79.3518
lradius 47.194
lwrist -19.2779
lhand 1.92127 0.335019
lfingers 7.12502
lthumb 27.4293 28.3582
rfemur -2.56728 -4.97258 1.94916
rtibia 34.8911
rfoot -10.029 -3.48563
rtoes -13.9914
lfemur -1.46849 -28.8658 -26.8421
ltibia 33.0761
lfoot -27.5926 6.90782
ltoes 3.90879
3508
root -4.08658 17.2198 -1.37104 330.963 -81.1565 -340.534
lowerback 14.5518 -2.44676 -9.17122
upperback 3.62302 -4.87533 -2.03572
thorax -3.70656 -2.44248 3.83525
lowerneck 1.5899 2.49409 -5.46666
upperneck -1.09231 3.15337 -1.155
head -0.66558 1.59498 0.51264
rclavicle 4.62174e-014 -1.51076e-014
rhumerus -40.831 -0.898869 -75.1834
rradius 31.529
rwrist 21.7381
rhand -8.09686 19.8563
rfingers 7.12502
rthumb 17.8156 -9.3476
lclavicle 4.62174e-014 -1.51076e-014
lhumerus -22.0477 -5.81574 79.0265
lradius 44.2677
lwrist -17.6517
lhand -0.0710961 -0.845467
lfingers 7.12502
lthumb 25.5223 27.4651
rfemur -2.21694 -4.38188 1.81704
rtibia 34.5592
rfoot -10.6018 -4.06298
rtoes -14.9937
lfemur -1.50473 -28.6161 -26.9658
ltibia 32.9524
lfoot -27.3418 6.56763
ltoes 3.85411
3509
root -4.09332 17.2173 -1.37438 329.772 -80.9146 -339.276
lowerback 14.4249 -2.51207 -9.38368
upperback 3.57273 -4.98452 -2.11441
thorax -3.66569 -2.49519 3.8788
lowerneck 1.57665 2.44684 -5.52186
upperneck -1.05692 3.09258 -1.07768
head -0.65367 1.56354 0.546916
rclavicle 2.03754e-015 1.27222e-014
rhumerus -40.4091 -2.53138 -74.9882
rradius 31.1408
rwrist 19.3248
rhand -10.0477 20.0084
rfingers 7.12502
rthumb 15.9378 -9.35581
lclavicle 2.03754e-015 1.27222e-014
lhumerus -20.2967 -2.18903 78.8081
lradius 41.4539
lwrist -16.0675
lhand -2.2008 -1.64093
lfingers 7.12502
lthumb 23.4808 26.9461
rfemur -1.90846 -3.7295 1.67215
rtibia 34.207
rfoot -11.153 -4.68393
rtoes -15.8587
lfemur -1.55532 -28.4621 -27.1651
ltibia 32.8645
lfoot -27.1816 6.32979
ltoes 3.82038
